<svg width="12" height="12" viewBox="0 0 12 12" fill="none" xmlns="http://www.w3.org/2000/svg">
<path d="M6.00049 7.54498C6.17426 7.54521 6.31494 7.68659 6.31494 7.86041C6.31471 8.03404 6.17412 8.17463 6.00049 8.17487C5.82666 8.17487 5.68529 8.03418 5.68506 7.86041C5.68506 7.68644 5.82652 7.54498 6.00049 7.54498Z" stroke="#F7FAFC"/>
<path d="M8.78809 5.22461L9.07812 5.26074C9.70505 5.33912 10.0078 5.52183 10.1846 5.77637C10.383 6.06199 10.5 6.54355 10.5 7.39453V8.3252C10.5 9.33247 10.3386 9.8176 10.0781 10.0781C9.8176 10.3386 9.33247 10.5 8.3252 10.5H3.6748C2.66753 10.5 2.1824 10.3386 1.92188 10.0781C1.66135 9.8176 1.50002 9.33247 1.5 8.3252V7.39453C1.50004 6.54355 1.61704 6.06199 1.81543 5.77637C1.99223 5.52183 2.29495 5.33912 2.92188 5.26074L3.21191 5.22461H8.78809ZM6 5.84961C4.89494 5.84961 3.99023 6.74813 3.99023 7.86035C3.99042 8.96526 4.8879 9.87012 6 9.87012C7.11102 9.87012 8.00958 8.97133 8.00977 7.86035C8.00977 6.75421 7.10614 5.84961 6 5.84961Z" fill="#F7FAFC" stroke="#F7FAFC"/>
</svg>
