<svg width="343" height="120" viewBox="0 0 343 120" fill="none" xmlns="http://www.w3.org/2000/svg">
<rect x="0.5" y="0.5" width="342" height="119" rx="15.5" fill="#F7FAFC"/>
<rect x="0.5" y="0.5" width="342" height="119" rx="15.5" stroke="#C7DCF0"/>
<circle cx="19" cy="32" r="5.5" stroke="#2ADBB9" stroke-width="3"/>
<rect x="34" y="31" width="28.25" height="2" fill="#0B1521"/>
<path d="M62.25 24C62.25 17.3726 67.6226 12 74.25 12H90.25C96.8774 12 102.25 17.3726 102.25 24V40C102.25 46.6274 96.8774 52 90.25 52H74.25C67.6226 52 62.25 46.6274 62.25 40V24Z" fill="#1B9CFC"/>
<path d="M84.38 30.064V26.2H86.34V36H84.38V31.912H79.844V36H77.884V26.2H79.844V30.064H84.38Z" fill="white"/>
<rect x="102.25" y="31" width="12" height="2" fill="#0B1521"/>
<path d="M114.25 24C114.25 17.3726 119.623 12 126.25 12H142.25C148.877 12 154.25 17.3726 154.25 24V40C154.25 46.6274 148.877 52 142.25 52H126.25C119.623 52 114.25 46.6274 114.25 40V24Z" fill="#2ADBB9"/>
<path d="M135.322 31.002L138.556 36H136.344L134.216 32.724L132.102 36H129.89L133.11 31.002L130.002 26.2H132.214L134.216 29.294L136.218 26.2H138.43L135.322 31.002Z" fill="white"/>
<rect x="154.25" y="31" width="28.25" height="2" fill="#0B1521"/>
<rect x="182.5" y="31" width="28.25" height="2" fill="#0B1521"/>
<path d="M210.75 24C210.75 17.3726 216.123 12 222.75 12H238.75C245.377 12 250.75 17.3726 250.75 24V40C250.75 46.6274 245.377 52 238.75 52H222.75C216.123 52 210.75 46.6274 210.75 40V24Z" fill="#1B9CFC"/>
<path d="M232.88 30.064V26.2H234.84V36H232.88V31.912H228.344V36H226.384V26.2H228.344V30.064H232.88Z" fill="white"/>
<rect x="250.75" y="31" width="12" height="2" fill="#0B1521"/>
<path d="M262.75 24C262.75 17.3726 268.123 12 274.75 12H290.75C297.377 12 302.75 17.3726 302.75 24V40C302.75 46.6274 297.377 52 290.75 52H274.75C268.123 52 262.75 46.6274 262.75 40V24Z" fill="#2ADBB9"/>
<path d="M283.822 31.002L287.056 36H284.844L282.716 32.724L280.602 36H278.39L281.61 31.002L278.502 26.2H280.714L282.716 29.294L284.718 26.2H286.93L283.822 31.002Z" fill="white"/>
<rect x="302.75" y="31" width="28.25" height="2" fill="#0B1521"/>
<circle cx="19" cy="88" r="5.5" stroke="#6931F4" stroke-width="3"/>
<rect x="34" y="87" width="28.25" height="2" fill="#0B1521"/>
<path d="M62.25 80C62.25 73.3726 67.6226 68 74.25 68H90.25C96.8774 68 102.25 73.3726 102.25 80V96C102.25 102.627 96.8774 108 90.25 108H74.25C67.6226 108 62.25 102.627 62.25 96V80Z" fill="#1B9CFC"/>
<path d="M84.38 86.064V82.2H86.34V92H84.38V87.912H79.844V92H77.884V82.2H79.844V86.064H84.38Z" fill="white"/>
<rect x="102.25" y="87" width="12" height="2" fill="#0B1521"/>
<path d="M114.25 80C114.25 73.3726 119.623 68 126.25 68H142.25C148.877 68 154.25 73.3726 154.25 80V96C154.25 102.627 148.877 108 142.25 108H126.25C119.623 108 114.25 102.627 114.25 96V80Z" fill="#2ADBB9"/>
<path d="M135.322 87.002L138.556 92H136.344L134.216 88.724L132.102 92H129.89L133.11 87.002L130.002 82.2H132.214L134.216 85.294L136.218 82.2H138.43L135.322 87.002Z" fill="white"/>
<rect x="154.25" y="87" width="28.25" height="2" fill="#0B1521"/>
<rect x="182.5" y="87" width="28.25" height="2" fill="#0B1521"/>
<path d="M210.75 80C210.75 73.3726 216.123 68 222.75 68H238.75C245.377 68 250.75 73.3726 250.75 80V96C250.75 102.627 245.377 108 238.75 108H222.75C216.123 108 210.75 102.627 210.75 96V80Z" fill="#1B9CFC"/>
<path d="M232.88 86.064V82.2H234.84V92H232.88V87.912H228.344V92H226.384V82.2H228.344V86.064H232.88Z" fill="white"/>
<rect x="250.75" y="87" width="12" height="2" fill="#0B1521"/>
<path d="M262.75 80C262.75 73.3726 268.123 68 274.75 68H290.75C297.377 68 302.75 73.3726 302.75 80V96C302.75 102.627 297.377 108 290.75 108H274.75C268.123 108 262.75 102.627 262.75 96V80Z" fill="#2ADBB9"/>
<path d="M283.822 87.002L287.056 92H284.844L282.716 88.724L280.602 92H278.39L281.61 87.002L278.502 82.2H280.714L282.716 85.294L284.718 82.2H286.93L283.822 87.002Z" fill="white"/>
<rect x="302.75" y="87" width="28.25" height="2" fill="#0B1521"/>
<rect x="181" y="31" width="2" height="58" fill="#1B9CFC"/>
<circle cx="182" cy="32" r="5" fill="#1B9CFC"/>
<circle cx="182" cy="88" r="5" fill="#1B9CFC"/>
</svg>
