<svg width="343" height="136" viewBox="0 0 343 136" fill="none" xmlns="http://www.w3.org/2000/svg">
<rect width="343" height="136" rx="16" fill="white" fill-opacity="0.1"/>
<rect width="343" height="136" rx="16" fill="url(#paint0_linear_1_2583)" fill-opacity="0.2"/>
<rect x="0.5" y="0.5" width="342" height="135" rx="15.5" stroke="#F7FAFC" stroke-opacity="0.1"/>
<circle cx="19" cy="39" r="5.5" stroke="#2ADBB9" stroke-width="3"/>
<circle cx="19" cy="97" r="5.5" stroke="#1B9CFC" stroke-width="3"/>
<rect x="42" y="12" width="289" height="112" rx="12" fill="white" fill-opacity="0.1"/>
<rect x="42" y="38" width="26.25" height="4" fill="#F7FAFC" fill-opacity="0.2"/>
<path d="M68.25 32C68.25 25.3726 73.6226 20 80.25 20H96.25C102.877 20 108.25 25.3726 108.25 32V48C108.25 54.6274 102.877 60 96.25 60H80.25C73.6226 60 68.25 54.6274 68.25 48V32Z" fill="#1B9CFC"/>
<path d="M90.38 38.064V34.2H92.34V44H90.38V39.912H85.844V44H83.884V34.2H85.844V38.064H90.38Z" fill="#0B1521" fill-opacity="0.5"/>
<rect x="108.25" y="38" width="12" height="4" fill="#F7FAFC" fill-opacity="0.2"/>
<path d="M120.25 32C120.25 25.3726 125.623 20 132.25 20H148.25C154.877 20 160.25 25.3726 160.25 32V48C160.25 54.6274 154.877 60 148.25 60H132.25C125.623 60 120.25 54.6274 120.25 48V32Z" fill="#2ADBB9"/>
<path d="M141.322 39.002L144.556 44H142.344L140.216 40.724L138.102 44H135.89L139.11 39.002L136.002 34.2H138.214L140.216 37.294L142.218 34.2H144.43L141.322 39.002Z" fill="#0B1521" fill-opacity="0.5"/>
<rect x="160.25" y="38" width="26.25" height="4" fill="#F7FAFC" fill-opacity="0.2"/>
<rect x="186.5" y="38" width="26.25" height="4" fill="#F7FAFC" fill-opacity="0.2"/>
<path d="M212.75 32C212.75 25.3726 218.123 20 224.75 20H240.75C247.377 20 252.75 25.3726 252.75 32V48C252.75 54.6274 247.377 60 240.75 60H224.75C218.123 60 212.75 54.6274 212.75 48V32Z" fill="#1B9CFC"/>
<path d="M234.88 38.064V34.2H236.84V44H234.88V39.912H230.344V44H228.384V34.2H230.344V38.064H234.88Z" fill="#0B1521" fill-opacity="0.5"/>
<rect x="252.75" y="38" width="12" height="4" fill="#F7FAFC" fill-opacity="0.2"/>
<path d="M264.75 32C264.75 25.3726 270.123 20 276.75 20H292.75C299.377 20 304.75 25.3726 304.75 32V48C304.75 54.6274 299.377 60 292.75 60H276.75C270.123 60 264.75 54.6274 264.75 48V32Z" fill="#2ADBB9"/>
<path d="M285.822 39.002L289.056 44H286.844L284.716 40.724L282.602 44H280.39L283.61 39.002L280.502 34.2H282.714L284.716 37.294L286.718 34.2H288.93L285.822 39.002Z" fill="#0B1521" fill-opacity="0.5"/>
<rect x="304.75" y="38" width="26.25" height="4" fill="#F7FAFC" fill-opacity="0.2"/>
<rect x="42" y="94" width="26.25" height="4" fill="#F7FAFC" fill-opacity="0.2"/>
<path d="M68.25 88C68.25 81.3726 73.6226 76 80.25 76H96.25C102.877 76 108.25 81.3726 108.25 88V104C108.25 110.627 102.877 116 96.25 116H80.25C73.6226 116 68.25 110.627 68.25 104V88Z" fill="#1B9CFC"/>
<path d="M90.38 94.064V90.2H92.34V100H90.38V95.912H85.844V100H83.884V90.2H85.844V94.064H90.38Z" fill="#0B1521" fill-opacity="0.5"/>
<rect x="108.25" y="94" width="12" height="4" fill="#F7FAFC" fill-opacity="0.2"/>
<path d="M120.25 88C120.25 81.3726 125.623 76 132.25 76H148.25C154.877 76 160.25 81.3726 160.25 88V104C160.25 110.627 154.877 116 148.25 116H132.25C125.623 116 120.25 110.627 120.25 104V88Z" fill="#2ADBB9"/>
<path d="M141.322 95.002L144.556 100H142.344L140.216 96.724L138.102 100H135.89L139.11 95.002L136.002 90.2H138.214L140.216 93.294L142.218 90.2H144.43L141.322 95.002Z" fill="#0B1521" fill-opacity="0.5"/>
<rect x="160.25" y="94" width="26.25" height="4" fill="#F7FAFC" fill-opacity="0.2"/>
<rect x="186.5" y="94" width="26.25" height="4" fill="#F7FAFC" fill-opacity="0.2"/>
<path d="M212.75 88C212.75 81.3726 218.123 76 224.75 76H240.75C247.377 76 252.75 81.3726 252.75 88V104C252.75 110.627 247.377 116 240.75 116H224.75C218.123 116 212.75 110.627 212.75 104V88Z" fill="#1B9CFC"/>
<path d="M234.88 94.064V90.2H236.84V100H234.88V95.912H230.344V100H228.384V90.2H230.344V94.064H234.88Z" fill="#0B1521" fill-opacity="0.5"/>
<rect x="252.75" y="94" width="12" height="4" fill="#F7FAFC" fill-opacity="0.2"/>
<path d="M264.75 88C264.75 81.3726 270.123 76 276.75 76H292.75C299.377 76 304.75 81.3726 304.75 88V104C304.75 110.627 299.377 116 292.75 116H276.75C270.123 116 264.75 110.627 264.75 104V88Z" fill="#2ADBB9"/>
<path d="M285.822 95.002L289.056 100H286.844L284.716 96.724L282.602 100H280.39L283.61 95.002L280.502 90.2H282.714L284.716 93.294L286.718 90.2H288.93L285.822 95.002Z" fill="#0B1521" fill-opacity="0.5"/>
<rect x="304.75" y="94" width="26.25" height="4" fill="#F7FAFC" fill-opacity="0.2"/>
<rect x="186" y="39" width="2" height="58" fill="#1B9CFC"/>
<circle cx="187" cy="40" r="5" fill="#1B9CFC"/>
<circle cx="187" cy="96" r="5" fill="#1B9CFC"/>
<defs>
<linearGradient id="paint0_linear_1_2583" x1="87.5" y1="211.556" x2="403.91" y2="82.3949" gradientUnits="userSpaceOnUse">
<stop stop-color="#6525FE"/>
<stop offset="1" stop-color="#F25F1C"/>
</linearGradient>
</defs>
</svg>
