<svg viewBox="0 0 75 44" fill="none" xmlns="http://www.w3.org/2000/svg">
<rect y="2" width="75" height="28" rx="8" fill="white"/>
<circle cx="37.5" cy="16" r="8.5" stroke="url(#paint0_linear_1_1797)" stroke-width="3"/>
<path d="M31.1889 39.8C31.1889 41.12 30.6129 42.296 29.6889 43.088L31.0209 44.588H29.9049L29.0049 43.568C28.3809 43.916 27.6489 44.12 26.8689 44.12C24.4449 44.12 22.5609 42.2 22.5609 39.8C22.5609 37.4 24.4449 35.48 26.8689 35.48C29.2929 35.48 31.1889 37.4 31.1889 39.8ZM26.8689 43.232C27.4329 43.232 27.9489 43.1 28.3929 42.872L26.5689 40.808H27.6609L29.0889 42.416C29.7969 41.78 30.2289 40.844 30.2289 39.8C30.2289 37.892 28.8009 36.368 26.8689 36.368C24.9369 36.368 23.5089 37.892 23.5089 39.8C23.5089 41.708 24.9249 43.232 26.8689 43.232ZM34.949 44.132C33.389 44.132 32.633 43.016 32.633 41.696V38.6H33.473V41.696C33.473 42.716 34.061 43.316 34.949 43.316C35.837 43.316 36.425 42.716 36.425 41.696V38.6H37.265V41.696C37.265 43.016 36.509 44.132 34.949 44.132ZM41.8654 38.468C43.4374 38.468 44.7214 39.656 44.7214 41.312C44.7214 42.956 43.4374 44.132 41.8654 44.132C41.0974 44.132 40.4014 43.808 39.9094 43.268V44H39.0694V35.6H39.9094V39.344C40.4014 38.792 41.0974 38.468 41.8654 38.468ZM41.8654 43.292C42.9694 43.292 43.8214 42.464 43.8214 41.312C43.8214 40.148 42.9694 39.308 41.8654 39.308C40.7734 39.308 39.9094 40.148 39.9094 41.312C39.9094 42.464 40.7734 43.292 41.8654 43.292ZM46.6964 37.172C46.3484 37.172 46.0604 36.896 46.0604 36.536C46.0604 36.176 46.3484 35.888 46.6964 35.888C47.0564 35.888 47.3444 36.176 47.3444 36.536C47.3444 36.896 47.0564 37.172 46.6964 37.172ZM47.1164 44H46.2764V38.6H47.1164V44ZM50.5538 44.132C49.5698 44.132 48.9338 43.604 48.5738 42.944L49.3058 42.512C49.5458 43.004 50.0498 43.316 50.5538 43.316C51.2738 43.316 51.6818 43.016 51.6818 42.524C51.6818 42.008 51.2258 41.768 50.4818 41.612C49.7258 41.456 48.7778 41.072 48.7778 39.98C48.7778 39.188 49.4378 38.468 50.6018 38.468C51.4418 38.468 52.1018 38.888 52.3778 39.584L51.6938 40.016C51.5378 39.488 51.0578 39.236 50.6018 39.236C50.0018 39.236 49.6538 39.56 49.6538 39.968C49.6538 40.508 50.1218 40.712 50.8178 40.844C52.1858 41.108 52.5578 41.816 52.5578 42.524C52.5578 43.352 51.9098 44.132 50.5538 44.132Z" fill="url(#paint1_linear_1_1797)"/>
<defs>
<linearGradient id="paint0_linear_1_1797" x1="27.5" y1="26" x2="60.8061" y2="28.0479" gradientUnits="userSpaceOnUse">
<stop stop-color="#6525FE"/>
<stop offset="1" stop-color="#EA3076"/>
</linearGradient>
<linearGradient id="paint1_linear_1_1797" x1="0.5" y1="46" x2="72.8309" y2="28.3933" gradientUnits="userSpaceOnUse">
<stop stop-color="#6525FE"/>
<stop offset="1" stop-color="#1A91FC"/>
</linearGradient>
</defs>
</svg>
