<svg viewBox="0 0 75 44" fill="none" xmlns="http://www.w3.org/2000/svg">
<rect width="75" height="28" rx="8" fill="#F7FAFC"/>
<path d="M47.5 18.7417V6.67165C47.5 5.47165 46.52 4.58165 45.33 4.68165H45.27C43.17 4.86165 39.98 5.93165 38.2 7.05165L38.03 7.16165C37.74 7.34165 37.26 7.34165 36.97 7.16165L36.72 7.01165C34.94 5.90165 31.76 4.84165 29.66 4.67165C28.47 4.57165 27.5 5.47165 27.5 6.66165V18.7417C27.5 19.7017 28.28 20.6017 29.24 20.7217L29.53 20.7617C31.7 21.0517 35.05 22.1517 36.97 23.2017L37.01 23.2217C37.28 23.3717 37.71 23.3717 37.97 23.2217C39.89 22.1617 43.25 21.0517 45.43 20.7617L45.76 20.7217C46.72 20.6017 47.5 19.7017 47.5 18.7417Z" stroke="url(#paint0_linear_379_27199)" stroke-width="1.5" stroke-linecap="round" stroke-linejoin="round"/>
<path d="M37.5 7.48828V22.4883" stroke="url(#paint1_linear_379_27199)" stroke-width="1.5" stroke-linecap="round" stroke-linejoin="round"/>
<path d="M33.25 10.4883H31" stroke="url(#paint2_linear_379_27199)" stroke-width="1.5" stroke-linecap="round" stroke-linejoin="round"/>
<path d="M34 13.4883H31" stroke="url(#paint3_linear_379_27199)" stroke-width="1.5" stroke-linecap="round" stroke-linejoin="round"/>
<path d="M28.502 42H23.678V33.6H24.578V41.136H28.502V42ZM32.3313 42.132C30.6993 42.132 29.4633 40.836 29.4633 39.3C29.4633 37.776 30.5913 36.468 32.2713 36.468C33.9393 36.468 35.2233 37.836 35.0073 39.576H30.3753C30.5193 40.68 31.4553 41.292 32.3313 41.292C33.0633 41.292 33.7473 40.92 34.1073 40.308L34.7913 40.752C34.2993 41.604 33.3753 42.132 32.3313 42.132ZM30.4113 38.796H34.0833C34.0233 38.052 33.3153 37.296 32.2713 37.296C31.2633 37.296 30.6033 37.944 30.4113 38.796ZM38.3967 42.132C37.1247 42.132 36.2967 41.352 36.2967 40.392C36.2967 39.432 37.0767 38.82 38.1087 38.82H39.4047C39.8007 38.82 40.0527 38.58 40.0527 38.244C40.0527 37.824 39.5967 37.284 38.6727 37.284C37.8567 37.284 37.3767 37.728 37.1487 38.316L36.4887 37.884C36.8247 37.08 37.5327 36.468 38.6727 36.468C40.0767 36.468 40.9287 37.38 40.9287 38.472V42H40.1607V41.208C39.9927 41.592 39.3207 42.132 38.3967 42.132ZM38.3967 41.316C39.4647 41.316 40.0887 40.632 40.0887 39.636V39.564H38.1207C37.5687 39.564 37.1967 39.912 37.1967 40.392C37.1967 40.896 37.6167 41.316 38.3967 41.316ZM43.6242 42H42.7842V36.6H43.5522V37.464C43.7922 36.876 44.4642 36.468 45.2202 36.468H45.5922V37.32H45.2202C44.2242 37.32 43.6242 38.028 43.6242 39.012V42ZM47.8664 42H47.0264V36.6H47.7944V37.392C47.9864 37.008 48.5864 36.468 49.5464 36.468C50.8544 36.468 51.6824 37.404 51.6824 38.616V42H50.8424V38.796C50.8424 37.872 50.2664 37.284 49.4024 37.284C48.5264 37.284 47.8664 37.944 47.8664 38.964V42Z" fill="url(#paint4_linear_379_27199)"/>
<defs>
<linearGradient id="paint0_linear_379_27199" x1="27.5" y1="23.3342" x2="60.7876" y2="25.5267" gradientUnits="userSpaceOnUse">
<stop stop-color="#6525FE"/>
<stop offset="1" stop-color="#EA3076"/>
</linearGradient>
<linearGradient id="paint1_linear_379_27199" x1="37.5" y1="22.4883" x2="39.1716" y2="22.4951" gradientUnits="userSpaceOnUse">
<stop stop-color="#6525FE"/>
<stop offset="1" stop-color="#EA3076"/>
</linearGradient>
<linearGradient id="paint2_linear_379_27199" x1="31" y1="11.4883" x2="34.6905" y2="11.9988" gradientUnits="userSpaceOnUse">
<stop stop-color="#6525FE"/>
<stop offset="1" stop-color="#EA3076"/>
</linearGradient>
<linearGradient id="paint3_linear_379_27199" x1="31" y1="14.4883" x2="35.8498" y2="15.3829" gradientUnits="userSpaceOnUse">
<stop stop-color="#6525FE"/>
<stop offset="1" stop-color="#EA3076"/>
</linearGradient>
<linearGradient id="paint4_linear_379_27199" x1="1.5" y1="44" x2="72.0866" y2="27.2823" gradientUnits="userSpaceOnUse">
<stop stop-color="#6525FE"/>
<stop offset="1" stop-color="#1A91FC"/>
</linearGradient>
</defs>
</svg>
