<svg viewBox="0 0 75 44" fill="none" xmlns="http://www.w3.org/2000/svg">
<rect width="75" height="28" rx="8" fill="#F3F7FC"/>
<path d="M37.6586 12.87C37.5586 12.86 37.4386 12.86 37.3286 12.87C34.9486 12.79 33.0586 10.84 33.0586 8.44C33.0586 5.99 35.0386 4 37.4986 4C39.9486 4 41.9386 5.99 41.9386 8.44C41.9286 10.84 40.0386 12.79 37.6586 12.87Z" stroke="#0B1521" stroke-width="1.5" stroke-linecap="round" stroke-linejoin="round"/>
<path d="M37.6586 12.87C37.5586 12.86 37.4386 12.86 37.3286 12.87C34.9486 12.79 33.0586 10.84 33.0586 8.44C33.0586 5.99 35.0386 4 37.4986 4C39.9486 4 41.9386 5.99 41.9386 8.44C41.9286 10.84 40.0386 12.79 37.6586 12.87Z" stroke="url(#paint0_linear_2015_24553)" stroke-width="1.5" stroke-linecap="round" stroke-linejoin="round"/>
<path d="M32.6588 16.56C30.2387 18.18 30.2387 20.82 32.6588 22.43C35.4088 24.27 39.9188 24.27 42.6688 22.43C45.0888 20.81 45.0888 18.17 42.6688 16.56C39.9288 14.73 35.4188 14.73 32.6588 16.56Z" stroke="#0B1521" stroke-width="1.5" stroke-linecap="round" stroke-linejoin="round"/>
<path d="M32.6588 16.56C30.2387 18.18 30.2387 20.82 32.6588 22.43C35.4088 24.27 39.9188 24.27 42.6688 22.43C45.0888 20.81 45.0888 18.17 42.6688 16.56C39.9288 14.73 35.4188 14.73 32.6588 16.56Z" stroke="url(#paint1_linear_2015_24553)" stroke-width="1.5" stroke-linecap="round" stroke-linejoin="round"/>
<path d="M22.2459 42H21.3459V33.6H24.0819C25.6419 33.6 26.9019 34.8 26.9019 36.24C26.9019 37.74 25.6419 38.952 24.0819 38.952H22.2459V42ZM22.2459 34.452V38.088H24.0099C25.1379 38.088 25.9419 37.26 25.9419 36.24C25.9419 35.256 25.1379 34.452 24.0099 34.452H22.2459ZM29.0578 42H28.2178V36.6H28.9858V37.464C29.2258 36.876 29.8978 36.468 30.6538 36.468H31.0258V37.32H30.6538C29.6578 37.32 29.0578 38.028 29.0578 39.012V42ZM34.7216 42.132C33.1496 42.132 31.8656 40.956 31.8656 39.312C31.8656 37.656 33.1496 36.468 34.7216 36.468C36.3056 36.468 37.5776 37.656 37.5776 39.312C37.5776 40.956 36.3056 42.132 34.7216 42.132ZM34.7216 41.292C35.8136 41.292 36.6776 40.464 36.6776 39.312C36.6776 38.148 35.8136 37.308 34.7216 37.308C33.6176 37.308 32.7656 38.148 32.7656 39.312C32.7656 40.464 33.6176 41.292 34.7216 41.292ZM40.4717 42H39.6317V37.38H38.5397V36.66H38.9837C39.4037 36.66 39.6557 36.42 39.6557 36.012V35.424C39.6557 34.128 40.5557 33.36 41.7077 33.36H41.8877V34.14H41.7077C40.8677 34.14 40.4717 34.668 40.4717 35.424V36.6H42.0437V37.38H40.4717V42ZM43.6613 35.172C43.3133 35.172 43.0253 34.896 43.0253 34.536C43.0253 34.176 43.3133 33.888 43.6613 33.888C44.0213 33.888 44.3093 34.176 44.3093 34.536C44.3093 34.896 44.0213 35.172 43.6613 35.172ZM44.0813 42H43.2413V36.6H44.0813V42ZM47.8306 42.084H47.7586C46.6306 42.084 45.9586 41.448 45.9586 40.212V33.6H46.7986V40.212C46.7986 40.896 47.1826 41.268 47.8306 41.268V42.084ZM51.6086 42.132C49.9766 42.132 48.7406 40.836 48.7406 39.3C48.7406 37.776 49.8686 36.468 51.5486 36.468C53.2166 36.468 54.5006 37.836 54.2846 39.576H49.6526C49.7966 40.68 50.7326 41.292 51.6086 41.292C52.3406 41.292 53.0246 40.92 53.3846 40.308L54.0686 40.752C53.5766 41.604 52.6526 42.132 51.6086 42.132ZM49.6886 38.796H53.3606C53.3006 38.052 52.5926 37.296 51.5486 37.296C50.5406 37.296 49.8806 37.944 49.6886 38.796Z" fill="url(#paint2_linear_2015_24553)"/>
<defs>
<linearGradient id="paint0_linear_2015_24553" x1="33.0586" y1="12.87" x2="47.8464" y2="13.7803" gradientUnits="userSpaceOnUse">
<stop stop-color="#6525FE"/>
<stop offset="1" stop-color="#EA3076"/>
</linearGradient>
<linearGradient id="paint1_linear_2015_24553" x1="30.8438" y1="23.81" x2="53.4307" y2="26.007" gradientUnits="userSpaceOnUse">
<stop stop-color="#6525FE"/>
<stop offset="1" stop-color="#EA3076"/>
</linearGradient>
<linearGradient id="paint2_linear_2015_24553" x1="1.5" y1="44" x2="72.0866" y2="27.2823" gradientUnits="userSpaceOnUse">
<stop stop-color="#6525FE"/>
<stop offset="1" stop-color="#1A91FC"/>
</linearGradient>
</defs>
</svg>
