<svg width="12" height="12" viewBox="0 0 12 12" fill="none" xmlns="http://www.w3.org/2000/svg">
<path d="M9.74951 7.5C10.1634 7.5 10.4995 7.83614 10.4995 8.25V9.75C10.4995 10.1639 10.1634 10.5 9.74951 10.5H6.18213L9.11377 7.50391C9.11497 7.50271 9.11663 7.50091 9.11865 7.5H9.74951Z" stroke="#0B1521"/>
<path d="M9.18512 5.64501L7.83012 7.00001L6.60012 8.22501C6.28512 8.54001 5.74512 8.32001 5.74512 7.87501C5.74512 6.27001 5.74512 3.63001 5.74512 3.63001C5.74512 3.49501 5.80012 3.37001 5.89012 3.27501L6.35012 2.81501C6.84012 2.32501 7.63012 2.32501 8.12012 2.81501L9.18012 3.87501C9.67512 4.36501 9.67512 5.15501 9.18512 5.64501Z" fill="#0B1521"/>
<path d="M3.75 1H2.25C1.5 1 1 1.5 1 2.25V9C1 9.135 1.015 9.27 1.04 9.4C1.055 9.465 1.07 9.53 1.09 9.595C1.115 9.67 1.14 9.745 1.17 9.815C1.175 9.82 1.175 9.825 1.175 9.825C1.18 9.825 1.18 9.825 1.175 9.83C1.245 9.97 1.325 10.105 1.42 10.23C1.475 10.295 1.53 10.355 1.585 10.415C1.64 10.475 1.7 10.525 1.765 10.575L1.77 10.58C1.895 10.675 2.03 10.755 2.17 10.825C2.175 10.82 2.175 10.82 2.175 10.825C2.25 10.86 2.325 10.885 2.405 10.91C2.47 10.93 2.535 10.945 2.6 10.96C2.73 10.985 2.865 11 3 11C3.205 11 3.415 10.97 3.61 10.905C3.665 10.885 3.72 10.865 3.775 10.84C3.95 10.77 4.12 10.67 4.27 10.54C4.315 10.505 4.365 10.46 4.41 10.415L4.43 10.395C4.78 10.035 5 9.54 5 9V2.25C5 1.5 4.5 1 3.75 1ZM3 9.75C2.585 9.75 2.25 9.415 2.25 9C2.25 8.585 2.585 8.25 3 8.25C3.415 8.25 3.75 8.585 3.75 9C3.75 9.415 3.415 9.75 3 9.75Z" fill="#0B1521"/>
</svg>
