<svg width="46" height="47" viewBox="0 0 46 47" fill="none" xmlns="http://www.w3.org/2000/svg">
<rect x="0.5" width="45.1667" height="46.5" rx="8" fill="white" fill-opacity="0.1"/>
<rect x="0.5" width="45.1667" height="46.5" rx="8" fill="url(#paint0_linear_1_1374)" fill-opacity="0.7"/>
<rect x="1" y="0.5" width="44.1667" height="45.5" rx="7.5" stroke="#0B1521" stroke-opacity="0.1"/>
<path d="M23.0835 13.25C17.5735 13.25 13.0835 17.74 13.0835 23.25C13.0835 28.76 17.5735 33.25 23.0835 33.25C28.5935 33.25 33.0835 28.76 33.0835 23.25C33.0835 17.74 28.5935 13.25 23.0835 13.25ZM27.8635 20.95L22.1935 26.62C22.0535 26.76 21.8635 26.84 21.6635 26.84C21.4635 26.84 21.2735 26.76 21.1335 26.62L18.3035 23.79C18.0135 23.5 18.0135 23.02 18.3035 22.73C18.5935 22.44 19.0735 22.44 19.3635 22.73L21.6635 25.03L26.8035 19.89C27.0935 19.6 27.5735 19.6 27.8635 19.89C28.1535 20.18 28.1535 20.65 27.8635 20.95Z" fill="white"/>
<defs>
<linearGradient id="paint0_linear_1_1374" x1="-2.16699" y1="54" x2="28.2632" y2="62.1695" gradientUnits="userSpaceOnUse">
<stop stop-color="#23D5AF"/>
<stop offset="1" stop-color="#1A91FC"/>
</linearGradient>
</defs>
</svg>
