<svg width="46" height="47" viewBox="0 0 46 47" fill="none" xmlns="http://www.w3.org/2000/svg">
<rect x="0.333496" width="45.1667" height="46.5" rx="8" fill="white" fill-opacity="0.1"/>
<rect x="0.333496" width="45.1667" height="46.5" rx="8" fill="url(#paint0_linear_1_1372)" fill-opacity="0.7"/>
<rect x="0.833496" y="0.5" width="44.1667" height="45.5" rx="7.5" stroke="#0B1521" stroke-opacity="0.1"/>
<path d="M22.917 13.25C17.407 13.25 12.917 17.74 12.917 23.25C12.917 28.76 17.407 33.25 22.917 33.25C28.427 33.25 32.917 28.76 32.917 23.25C32.917 17.74 28.427 13.25 22.917 13.25ZM27.697 20.95L22.027 26.62C21.887 26.76 21.697 26.84 21.497 26.84C21.297 26.84 21.107 26.76 20.967 26.62L18.137 23.79C17.847 23.5 17.847 23.02 18.137 22.73C18.427 22.44 18.907 22.44 19.197 22.73L21.497 25.03L26.637 19.89C26.927 19.6 27.407 19.6 27.697 19.89C27.987 20.18 27.987 20.65 27.697 20.95Z" fill="white"/>
<defs>
<linearGradient id="paint0_linear_1_1372" x1="-2.3335" y1="54" x2="28.0967" y2="62.1695" gradientUnits="userSpaceOnUse">
<stop stop-color="#EA3076"/>
<stop offset="1" stop-color="#F25F1C"/>
</linearGradient>
</defs>
</svg>
